<?xml version="1.0" standalone="no"?>
<!DOCTYPE svg PUBLIC "-//W3C//DTD SVG 20010904//EN"
 "http://www.w3.org/TR/2001/REC-SVG-20010904/DTD/svg10.dtd">
<svg version="1.0" xmlns="http://www.w3.org/2000/svg"
 width="768.000000pt" height="1280.000000pt" viewBox="0 0 768.000000 1280.000000"
 preserveAspectRatio="xMidYMid meet">
<metadata>
Created by potrace 1.15, written by Peter Selinger 2001-2017
</metadata>
<g transform="translate(0.000000,1280.000000) scale(0.100000,-0.100000)"
fill="#607d8b" stroke="none">
<path d="M4384 12790 c-40 -16 -73 -74 -97 -171 -13 -52 -138 -521 -277 -1044
-208 -779 -257 -953 -274 -964 -12 -8 -45 -39 -75 -70 -52 -54 -53 -56 -49
-106 6 -67 45 -149 101 -211 53 -58 92 -135 107 -209 10 -53 70 -713 70 -778
0 -32 -11 -52 -65 -121 -35 -46 -70 -88 -78 -94 -11 -10 -6 -39 30 -174 43
-161 126 -611 139 -751 7 -77 -8 -166 -116 -727 -27 -140 -51 -266 -53 -280
-3 -20 -22 -34 -103 -75 -95 -48 -102 -50 -176 -48 -73 2 -304 30 -319 38 -4
3 -10 51 -14 108 -8 115 4 200 60 447 48 207 59 304 51 447 -5 88 -4 127 5
141 10 16 -13 93 -154 503 -91 266 -229 671 -307 899 -78 228 -149 428 -157
443 -31 62 -115 71 -154 16 -10 -13 -121 -388 -248 -834 -328 -1156 -321
-1129 -314 -1200 2 -33 -5 -267 -16 -520 -12 -253 -21 -480 -21 -505 0 -25 -4
-40 -8 -33 -5 9 -53 13 -157 15 l-148 3 -10 30 c-34 106 -197 548 -244 658
-30 73 -92 227 -138 342 -143 364 -218 513 -269 536 -28 13 -77 -9 -102 -46
-16 -24 -77 -210 -329 -1000 -179 -563 -205 -648 -210 -688 -3 -17 2 -67 10
-111 18 -94 18 -89 3 -80 -8 5 -9 2 -4 -12 4 -10 20 -69 36 -130 27 -102 30
-134 38 -365 l8 -254 -36 -60 c-80 -132 -87 -191 -39 -316 26 -67 41 -90 90
-137 37 -35 63 -70 70 -92 7 -23 9 -218 6 -575 -3 -457 -7 -567 -24 -715 -20
-178 -25 -195 -73 -262 -23 -32 -28 -49 -33 -136 -4 -71 -15 -124 -36 -190
-17 -51 -31 -104 -31 -119 0 -14 14 -69 31 -122 20 -63 29 -107 25 -129 -6
-38 -49 -112 -135 -231 l-61 -84 1 -106 c1 -116 -13 -172 -77 -328 -19 -45
-34 -93 -34 -106 0 -14 12 -56 26 -93 30 -79 29 -122 -5 -242 -32 -117 -20
-131 161 -192 182 -60 278 -118 329 -199 52 -82 37 -136 -81 -291 -83 -108
-92 -128 -92 -188 0 -56 12 -68 73 -76 70 -9 132 -35 208 -84 77 -50 127 -67
174 -58 80 15 243 169 301 284 19 37 59 139 91 227 99 275 112 290 284 334
119 30 546 87 560 75 2 -2 0 -36 -6 -75 -7 -50 -6 -72 1 -74 8 -3 461 -18 586
-20 25 0 32 -51 34 -268 3 -180 5 -211 20 -225 18 -18 108 -22 313 -12 89 4
93 3 143 -28 86 -53 198 -76 510 -102 184 -15 221 -20 215 -30 -8 -14 20 -29
106 -59 63 -21 120 -53 226 -124 186 -126 195 -128 454 -125 238 3 272 -4 414
-92 142 -86 378 -184 650 -268 172 -53 186 -56 210 -37 11 8 43 32 71 54 66
51 139 91 239 132 107 43 177 89 204 133 18 29 27 35 49 31 86 -13 451 -37
475 -31 42 10 43 31 2 97 -24 40 -39 79 -45 117 -4 31 -11 69 -15 84 -7 28 -4
32 63 85 18 14 39 38 47 52 7 15 32 117 55 227 23 109 51 221 62 249 30 73
101 136 196 175 l79 33 31 102 c30 98 32 114 38 329 l7 226 76 73 76 72 -2
125 c-3 212 -45 490 -110 724 -41 151 -41 202 2 331 32 98 44 265 45 625 1
251 -5 317 -40 454 -30 118 -35 241 -16 378 13 94 14 130 6 190 -28 183 -137
551 -206 696 -42 86 -150 205 -280 308 -70 56 -91 81 -154 182 -41 64 -95 149
-120 188 -53 81 -60 116 -61 324 0 96 4 130 26 205 30 105 82 249 101 285 8
14 29 62 48 106 l34 82 -70 62 c-50 45 -67 67 -63 79 4 9 15 182 26 386 l19
370 85 85 c62 62 85 92 85 110 -1 26 -23 64 -32 54 -6 -5 -268 122 -268 131 0
2 -95 352 -211 777 -115 425 -217 802 -225 838 -28 120 -66 141 -126 71 -28
-33 -82 -172 -322 -833 -318 -875 -324 -888 -335 -870 -4 6 -55 26 -114 43
l-107 32 0 654 c0 640 0 655 20 680 12 16 20 41 20 65 0 23 9 53 24 77 63 99
76 183 36 226 -26 27 -137 85 -163 85 -9 0 -18 8 -21 18 -6 19 -321 1204 -441
1656 -82 311 -104 372 -155 430 -53 60 -109 79 -166 56z m-3937 -6156 c-5 -5
-57 13 -57 20 0 3 14 0 31 -6 16 -6 28 -12 26 -14z m630 -50 c-3 -3 -12 -4
-19 -1 -8 3 -5 6 6 6 11 1 17 -2 13 -5z m1031 -3891 c-16 -2 -40 -2 -55 0 -16
2 -3 4 27 4 30 0 43 -2 28 -4z m3869 -385 c-3 -8 -6 -5 -6 6 -1 11 2 17 5 13
3 -3 4 -12 1 -19z m-3224 -105 c-7 -2 -19 -2 -25 0 -7 3 -2 5 12 5 14 0 19 -2
13 -5z"/>
</g>
</svg>
