<?xml version="1.0" standalone="no"?>
<!DOCTYPE svg PUBLIC "-//W3C//DTD SVG 20010904//EN"
 "http://www.w3.org/TR/2001/REC-SVG-20010904/DTD/svg10.dtd">
<svg version="1.0" xmlns="http://www.w3.org/2000/svg"
 width="640.000000pt" height="1280.000000pt" viewBox="0 0 640.000000 1280.000000"
 preserveAspectRatio="xMidYMid meet">
<metadata>
Created by potrace 1.15, written by Peter Selinger 2001-2017
</metadata>
<g transform="translate(0.000000,1280.000000) scale(0.100000,-0.100000)"
fill="#607d8b" stroke="none">
<path d="M3030 12784 c-370 -70 -352 -64 -545 -194 -55 -37 -122 -80 -148 -95
-40 -23 -54 -40 -83 -96 -22 -45 -34 -83 -34 -110 0 -36 7 -48 59 -102 l59
-62 -5 -120 -6 -120 46 -87 c63 -120 69 -144 50 -215 -26 -97 -23 -106 141
-349 93 -139 144 -193 213 -224 l52 -23 -6 -71 c-3 -39 -9 -81 -14 -92 -4 -12
-38 -42 -76 -67 -59 -39 -91 -51 -243 -90 -96 -25 -199 -48 -229 -52 -99 -11
-137 -46 -190 -172 -60 -141 -73 -244 -46 -371 17 -84 65 -217 100 -279 l25
-46 -26 -54 c-22 -45 -26 -62 -21 -104 8 -65 43 -125 106 -180 l50 -44 3 -205
c2 -113 0 -214 -5 -225 -4 -12 -21 -25 -39 -30 -17 -6 -41 -23 -52 -38 -20
-26 -20 -30 -5 -86 l15 -59 -30 -14 c-45 -19 -48 -68 -7 -107 l30 -28 -48 -74
c-91 -142 -192 -329 -267 -490 -102 -220 -168 -347 -203 -390 -16 -20 -60 -61
-98 -91 -76 -63 -146 -89 -351 -134 -236 -51 -252 -56 -310 -95 -31 -22 -93
-72 -136 -113 l-80 -73 21 -22 c20 -22 21 -22 72 -5 35 11 62 29 84 54 18 21
50 48 72 61 40 23 40 23 21 1 -27 -31 -13 -38 42 -23 72 20 219 29 297 20 57
-8 78 -6 114 7 59 22 229 152 521 396 135 113 246 205 248 204 1 -2 -18 -45
-42 -97 -67 -144 -95 -221 -126 -343 -16 -61 -51 -191 -79 -289 -100 -353
-151 -582 -191 -872 -27 -193 -79 -519 -131 -812 l-41 -231 50 -74 50 -74 -28
-210 c-38 -274 -74 -595 -100 -874 -20 -214 -25 -241 -101 -550 -76 -306 -118
-440 -169 -540 -12 -24 -89 -133 -171 -242 -83 -109 -152 -205 -155 -212 -7
-18 208 -241 295 -307 36 -27 106 -70 156 -95 94 -48 105 -56 105 -89 0 -40
48 -121 101 -173 149 -146 473 -226 899 -221 l175 2 32 -149 c38 -174 63 -373
63 -495 0 -75 -3 -88 -21 -105 -12 -10 -66 -71 -120 -135 -54 -64 -122 -134
-151 -155 -29 -21 -79 -63 -113 -92 -33 -29 -97 -71 -142 -92 -114 -54 -143
-108 -83 -151 52 -38 284 -52 395 -24 60 15 65 19 145 113 30 34 110 61 273
93 133 25 246 63 296 99 45 33 57 70 48 149 -8 64 -25 98 -56 111 -30 12 -113
134 -141 207 -22 59 -37 213 -45 479 l-7 201 94 12 c144 19 482 40 489 30 8
-13 66 -402 84 -557 8 -73 23 -165 34 -205 11 -40 27 -109 36 -154 23 -118
128 -425 167 -490 18 -30 51 -71 73 -90 58 -50 157 -96 219 -101 50 -4 56 -2
94 33 23 20 54 62 68 92 25 51 27 64 26 170 -1 158 -15 184 -181 351 -167 168
-225 257 -255 394 -15 68 -24 272 -19 411 l6 152 431 0 c475 1 492 2 554 60
l37 34 0 85 c-1 82 0 86 21 86 12 0 64 11 117 25 257 67 483 219 556 375 21
45 26 69 25 130 -1 69 -9 98 -96 340 -514 1426 -833 2354 -898 2610 -21 85
-80 335 -130 555 -274 1204 -410 1560 -861 2255 -48 74 -86 136 -84 138 2 2
17 -4 34 -12 69 -36 101 -10 101 83 0 50 5 68 24 94 59 78 55 169 -8 225 -70
62 -146 55 -272 -24 -48 -30 -89 -53 -91 -50 -10 9 30 206 51 251 13 28 84
142 159 254 l135 203 15 -28 c34 -67 88 -229 122 -367 29 -119 35 -159 30
-201 -6 -47 -4 -55 21 -85 27 -32 27 -35 14 -80 -22 -78 -23 -100 -6 -125 12
-19 26 -26 58 -28 l43 -3 7 -79 c17 -187 105 -384 266 -598 69 -93 128 -182
155 -240 25 -51 79 -165 121 -252 l77 -159 -12 -79 c-17 -119 -9 -165 42 -248
24 -39 62 -105 85 -146 22 -41 47 -82 57 -91 15 -15 17 -15 27 11 14 38 12
104 -5 151 -16 45 -19 113 -6 134 7 11 33 13 120 9 112 -5 112 -5 219 -58 85
-43 120 -67 169 -119 35 -35 76 -88 92 -116 28 -49 72 -95 93 -95 19 0 19 31
-1 59 -28 39 -27 41 14 34 19 -3 35 -2 35 2 0 20 -38 65 -93 110 -61 50 -157
183 -157 218 0 9 2 17 4 17 17 0 108 -49 134 -72 55 -47 82 -17 42 47 -25 40
-93 76 -196 101 -154 39 -356 158 -452 268 -83 95 -132 241 -187 558 -39 225
-116 516 -163 621 -16 34 -45 83 -64 108 l-35 45 28 32 c35 39 29 66 -24 101
-36 24 -37 26 -37 87 0 58 -2 64 -34 92 -19 16 -39 31 -45 33 -6 3 -17 78 -26
189 -34 417 -75 690 -146 975 -35 138 -123 413 -149 465 -24 46 -91 82 -195
105 -87 19 -236 70 -306 105 -24 12 -81 60 -125 106 -90 92 -86 84 -114 278
l-9 60 45 63 c25 35 47 63 50 63 3 0 12 -7 20 -15 9 -8 29 -15 46 -15 l31 0
-27 25 c-34 31 -34 69 0 100 22 20 33 24 64 19 59 -10 98 32 145 153 32 82 39
111 40 180 2 76 4 84 28 103 50 39 84 218 66 345 -24 168 -92 309 -204 421
-158 158 -332 210 -555 168z"/>
</g>
</svg>
