<?xml version="1.0" standalone="no"?>
<!DOCTYPE svg PUBLIC "-//W3C//DTD SVG 20010904//EN"
 "http://www.w3.org/TR/2001/REC-SVG-20010904/DTD/svg10.dtd">
<svg version="1.0" xmlns="http://www.w3.org/2000/svg"
 width="869.000000pt" height="1280.000000pt" viewBox="0 0 869.000000 1280.000000"
 preserveAspectRatio="xMidYMid meet">
<metadata>
Created by potrace 1.15, written by Peter Selinger 2001-2017
</metadata>
<g transform="translate(0.000000,1280.000000) scale(0.100000,-0.100000)"
fill="#607d8b" stroke="none">
<path d="M5743 12781 c-62 -21 -106 -49 -196 -126 l-68 -58 -22 21 c-56 52
-170 61 -260 19 -164 -75 -376 -388 -466 -687 -86 -286 -91 -319 -101 -610
-10 -270 -12 -290 -49 -394 -25 -69 -26 -130 -6 -205 8 -30 19 -97 25 -150 19
-153 58 -231 173 -344 32 -32 57 -60 55 -61 -1 -2 -41 -27 -88 -56 -287 -179
-319 -216 -320 -380 -1 -52 -7 -126 -14 -165 -53 -277 -122 -595 -148 -675
-37 -111 -226 -490 -352 -704 -48 -82 -84 -152 -79 -156 9 -8 235 -90 271 -97
12 -3 24 -9 27 -12 5 -10 -191 -595 -250 -746 -148 -375 -373 -763 -530 -913
-124 -118 -131 -144 -79 -272 41 -101 41 -102 -108 -263 -210 -226 -403 -414
-538 -523 -193 -155 -644 -490 -965 -715 -366 -256 -530 -380 -675 -509 -63
-56 -142 -122 -175 -145 -102 -73 -328 -179 -558 -261 -59 -22 -107 -41 -107
-44 0 -3 48 -14 108 -24 59 -10 116 -22 127 -27 17 -8 17 -9 -5 -5 -89 15
-243 28 -274 22 -19 -4 -50 -19 -67 -33 -27 -23 -31 -31 -26 -65 7 -54 86
-210 149 -293 64 -86 197 -220 343 -345 106 -92 205 -200 234 -253 14 -26 12
-29 -142 -187 l-157 -160 0 -48 c0 -40 7 -60 41 -112 123 -191 347 -323 713
-420 102 -27 417 -97 696 -155 283 -59 621 -60 895 -4 235 49 662 180 683 209
13 18 15 18 48 -3 19 -12 32 -28 29 -35 -2 -7 -58 -103 -124 -213 -93 -154
-122 -213 -131 -257 -6 -31 -18 -77 -27 -102 -27 -80 -143 -292 -225 -414 -96
-141 -123 -198 -138 -288 -27 -156 51 -263 231 -319 168 -52 310 15 395 187
33 66 37 84 45 195 14 202 34 321 64 380 8 14 41 55 73 91 80 89 95 135 97
298 l1 125 52 132 53 132 42 5 c544 68 560 73 637 215 24 45 59 95 77 112 41
35 204 119 233 119 12 0 49 -7 84 -16 78 -19 76 -14 76 -228 0 -172 -17 -305
-55 -424 -74 -235 -72 -421 6 -486 27 -23 39 -26 112 -26 135 -1 224 -22 350
-83 141 -69 170 -77 287 -77 149 0 279 39 316 95 18 27 44 133 37 149 -2 6
-52 34 -110 61 -200 94 -307 176 -465 358 -55 63 -68 84 -74 123 -10 66 26
383 45 406 4 4 76 -13 161 -38 137 -41 169 -47 275 -51 116 -4 122 -4 175 24
61 31 108 87 166 195 l35 68 60 0 c54 0 64 -3 110 -40 180 -142 429 -182 864
-140 386 38 557 97 769 266 59 47 109 84 110 82 36 -61 145 -213 163 -228 63
-50 129 -9 158 98 9 31 33 107 55 167 132 374 123 491 -75 893 -63 127 -130
244 -212 367 -189 284 -480 780 -616 1051 -75 149 -169 369 -295 684 l-105
265 -8 560 c-5 406 -12 590 -23 670 -48 352 -105 969 -90 984 6 6 69 -46 205
-166 84 -75 118 -111 122 -132 4 -16 41 -71 84 -121 43 -51 89 -105 102 -121
18 -22 26 -47 30 -99 6 -56 12 -76 37 -107 140 -176 153 -205 163 -370 7 -132
17 -150 107 -200 122 -66 234 -77 294 -27 67 57 85 160 59 338 -11 72 -10 76
16 123 l28 49 -17 56 c-9 30 -34 82 -55 115 -40 58 -177 207 -236 254 -70 56
-124 148 -151 253 -19 78 -49 112 -105 121 -32 6 -43 13 -58 43 -30 60 -260
383 -305 430 -22 24 -62 57 -88 73 l-48 31 16 31 c26 49 21 112 -20 247 -46
150 -52 163 -129 263 -92 122 -178 321 -271 632 -95 315 -191 485 -340 601
-39 31 -75 63 -80 73 -5 9 -17 26 -28 37 -17 19 -18 28 -9 77 13 74 -1 120
-79 261 -103 184 -140 261 -140 290 0 17 12 42 30 63 35 39 75 116 97 182 9
28 17 115 22 221 7 154 11 182 33 238 32 78 90 164 100 148 13 -19 9 -147 -6
-211 -8 -33 -13 -61 -12 -63 2 -1 20 21 40 50 l38 53 -4 -92 c-2 -51 -3 -93
-1 -93 1 0 16 30 33 67 55 121 69 189 95 458 19 202 19 280 0 391 -35 196 -97
268 -350 405 -320 174 -504 222 -652 170z m506 -3368 c-1 -43 -4 -106 -8 -141
l-6 -63 -94 95 -94 94 34 31 c36 33 97 59 142 60 l27 1 -1 -77z"/>
</g>
</svg>
