<?xml version="1.0" standalone="no"?>
<!DOCTYPE svg PUBLIC "-//W3C//DTD SVG 20010904//EN"
 "http://www.w3.org/TR/2001/REC-SVG-20010904/DTD/svg10.dtd">
<svg version="1.0" xmlns="http://www.w3.org/2000/svg"
 width="640.000000pt" height="1280.000000pt" viewBox="0 0 640.000000 1280.000000"
 preserveAspectRatio="xMidYMid meet">
<metadata>
Created by potrace 1.15, written by Peter Selinger 2001-2017
</metadata>
<g transform="translate(0.000000,1280.000000) scale(0.100000,-0.100000)"
fill="#607d8b" stroke="none">
<path d="M3055 12782 c-166 -50 -289 -135 -446 -305 -150 -163 -207 -238 -264
-348 -64 -123 -78 -193 -78 -374 -1 -142 2 -162 47 -370 68 -314 111 -492 151
-619 43 -140 105 -394 105 -435 0 -24 -6 -34 -32 -47 -100 -50 -132 -133 -105
-272 l14 -73 -36 -48 c-20 -27 -67 -86 -104 -132 -96 -116 -101 -129 -101
-229 0 -103 12 -130 109 -243 84 -98 135 -132 214 -141 57 -7 59 -8 77 -49 55
-122 220 -355 371 -522 70 -79 92 -110 97 -140 15 -84 40 -173 68 -244 16 -41
40 -111 52 -155 l24 -81 -127 -130 c-228 -235 -313 -348 -401 -530 -92 -192
-129 -337 -149 -590 -37 -457 -42 -792 -23 -1555 9 -353 2 -722 -18 -980 -38
-494 -130 -1188 -196 -1480 -125 -554 -457 -1373 -858 -2114 -54 -98 -96 -179
-94 -181 2 -2 86 -22 188 -45 102 -23 188 -44 192 -47 5 -2 -1 -22 -12 -43
-11 -22 -20 -44 -20 -49 0 -17 343 -94 602 -136 472 -75 1028 -95 1388 -50
160 20 393 67 501 101 83 26 251 95 340 140 l46 23 -18 118 c-150 958 -221
1577 -259 2268 -5 105 -13 233 -15 285 -27 463 -36 993 -40 2225 -3 737 -7
1381 -10 1430 -3 50 -25 376 -50 726 -25 350 -45 674 -45 719 l0 83 45 -42
c104 -95 171 -84 400 70 79 53 148 111 245 209 200 200 226 247 218 400 -6
103 -39 205 -97 294 -44 67 -394 418 -646 648 -82 75 -219 210 -304 298 -162
170 -201 203 -349 295 -85 53 -93 60 -88 84 3 14 8 50 12 79 6 51 10 57 109
155 128 127 168 187 205 307 17 52 37 106 44 120 13 23 15 23 22 7 13 -35 -5
-119 -43 -195 -50 -101 -50 -103 -15 -62 65 73 122 208 157 370 8 36 20 143
27 237 14 197 3 366 -32 493 -46 169 -199 411 -347 550 -110 105 -312 258
-390 296 -89 45 -168 53 -258 26z"/>
</g>
</svg>
