<?xml version="1.0" standalone="no"?>
<!DOCTYPE svg PUBLIC "-//W3C//DTD SVG 20010904//EN"
 "http://www.w3.org/TR/2001/REC-SVG-20010904/DTD/svg10.dtd">
<svg version="1.0" xmlns="http://www.w3.org/2000/svg"
 width="640.000000pt" height="1280.000000pt" viewBox="0 0 640.000000 1280.000000"
 preserveAspectRatio="xMidYMid meet">
<metadata>
Created by potrace 1.15, written by Peter Selinger 2001-2017
</metadata>
<g transform="translate(0.000000,1280.000000) scale(0.100000,-0.100000)"
fill="#607d8b" stroke="none">
<path d="M1360 12769 c-168 -43 -269 -95 -355 -183 -104 -106 -158 -181 -240
-335 -107 -201 -111 -227 -47 -301 40 -48 51 -90 52 -205 0 -114 16 -198 50
-264 29 -59 57 -85 104 -97 37 -9 39 -17 20 -78 -15 -47 -15 -60 -4 -101 7
-26 33 -75 58 -109 65 -88 320 -339 370 -365 30 -15 70 -24 128 -28 l84 -6 0
-103 c0 -56 -7 -137 -15 -180 -14 -71 -19 -82 -62 -126 -50 -51 -154 -109
-338 -189 -133 -58 -152 -76 -171 -164 -8 -38 -19 -100 -23 -137 l-9 -68 -92
-97 c-230 -243 -240 -319 -83 -630 l77 -152 -47 -168 c-89 -325 -141 -834
-153 -1508 l-6 -350 -36 -75 c-50 -107 -50 -174 2 -330 21 -63 54 -142 72
-176 19 -33 34 -68 34 -77 0 -29 23 -67 41 -67 21 0 59 45 59 71 0 30 19 32
25 2 15 -67 39 -115 71 -141 l34 -27 0 -290 c0 -159 5 -546 10 -860 5 -313 14
-856 20 -1205 5 -349 15 -918 20 -1265 6 -346 15 -886 20 -1200 l9 -570 77
-72 c144 -136 387 -223 623 -223 124 0 185 16 306 80 121 64 297 125 391 135
80 9 156 -11 286 -76 240 -121 463 -172 590 -135 72 21 113 64 104 110 -19 96
-19 111 3 130 34 31 103 31 224 2 91 -22 132 -26 250 -26 325 1 567 73 658
197 38 51 42 53 85 53 25 0 78 -10 116 -21 59 -18 86 -21 157 -16 158 11 311
69 391 149 34 34 130 201 130 226 0 14 -266 89 -490 137 -412 89 -490 154
-693 574 -261 542 -382 801 -502 1076 -363 831 -531 1333 -890 2675 -249 928
-286 1081 -320 1315 -9 61 -26 142 -37 180 -31 98 -148 324 -262 503 -53 84
-140 234 -193 334 l-97 183 46 85 c41 76 102 210 198 430 18 41 78 203 132
360 210 600 218 628 243 805 22 156 21 160 -124 306 -74 75 -117 125 -109 128
7 2 30 21 50 41 l38 38 0 88 c0 108 6 119 123 235 61 61 86 93 91 118 12 64 5
157 -19 246 -14 50 -42 158 -64 241 -21 83 -46 165 -55 183 -17 31 -16 32 20
92 33 53 39 71 45 147 4 48 11 121 14 162 7 75 7 75 -42 175 -27 55 -66 143
-86 195 -42 107 -92 200 -108 200 -7 0 -8 -7 -4 -17 4 -10 9 -43 12 -73 l6
-55 -28 40 c-98 143 -238 279 -396 385 -117 79 -175 106 -274 125 -110 21
-162 18 -295 -16z"/>
</g>
</svg>
