<?xml version="1.0" standalone="no"?>
<!DOCTYPE svg PUBLIC "-//W3C//DTD SVG 20010904//EN"
 "http://www.w3.org/TR/2001/REC-SVG-20010904/DTD/svg10.dtd">
<svg version="1.0" xmlns="http://www.w3.org/2000/svg"
 width="1171.000000pt" height="1280.000000pt" viewBox="0 0 1171.000000 1280.000000"
 preserveAspectRatio="xMidYMid meet">
<metadata>
Created by potrace 1.15, written by Peter Selinger 2001-2017
</metadata>
<g transform="translate(0.000000,1280.000000) scale(0.100000,-0.100000)"
fill="#607d8b" stroke="none">
<path d="M4539 12764 c-18 -20 -41 -40 -51 -45 -9 -5 -121 -16 -250 -24 -128
-8 -267 -22 -308 -30 -140 -28 -281 -85 -359 -144 -58 -44 -188 -201 -225
-270 -62 -120 -68 -152 -76 -426 -4 -137 -10 -258 -15 -268 -4 -10 -83 -72
-176 -139 -93 -66 -171 -123 -173 -127 -2 -3 23 -67 55 -141 33 -74 71 -165
84 -201 l24 -67 -21 -18 c-18 -17 -40 -19 -207 -21 -162 -1 -201 -5 -301 -28
-187 -43 -290 -84 -304 -122 -9 -23 14 -205 39 -302 14 -55 25 -108 25 -118 0
-11 -32 -41 -83 -78 -110 -80 -384 -355 -538 -540 -68 -82 -184 -230 -258
-327 l-133 -177 -29 -156 c-15 -85 -30 -195 -33 -243 l-5 -87 -83 -56 c-46
-31 -98 -73 -117 -93 l-35 -36 0 -122 -1 -123 138 -266 c134 -259 137 -268
152 -365 9 -61 15 -172 15 -287 l0 -189 -58 -71 c-116 -141 -156 -217 -210
-388 -22 -73 -46 -120 -92 -189 l-63 -93 18 -194 c21 -227 21 -227 130 -230
l60 -1 14 -87 14 -86 46 -24 c25 -12 57 -35 71 -50 74 -80 205 -85 254 -10 8
12 27 26 43 29 44 11 71 33 93 76 18 35 20 59 20 243 l0 204 31 46 c48 73 187
192 204 175 3 -3 10 -67 15 -144 13 -174 25 -202 95 -226 71 -24 149 -23 191
3 19 11 38 19 43 17 5 -2 -13 -73 -39 -158 -26 -85 -156 -506 -289 -935 l-241
-780 -286 -280 -286 -280 -5 -132 -6 -132 -214 -183 c-118 -101 -221 -188
-229 -194 -12 -10 -10 -39 13 -207 l27 -195 -23 -104 c-63 -283 -176 -526
-347 -744 -62 -80 -64 -84 -70 -156 l-6 -73 -98 -100 -98 -100 -7 -157 -6
-156 72 -113 73 -112 116 7 117 7 7 -181 c8 -210 25 -284 81 -366 81 -117 190
-191 389 -264 88 -32 91 -33 281 -34 l191 -1 79 48 c125 75 125 76 132 137 10
99 -5 126 -107 199 -103 73 -188 158 -217 216 -13 25 -23 71 -27 125 -12 153
-38 313 -73 445 -18 72 -34 135 -36 142 -1 6 156 198 348 426 l350 414 48 7
c60 9 116 56 152 130 14 29 55 140 91 247 35 107 87 239 114 295 44 88 56 105
99 132 63 41 127 112 150 165 27 65 39 120 56 277 19 173 44 256 131 435 101
208 235 402 478 694 110 133 121 142 128 120 4 -13 26 -127 48 -254 56 -317
104 -491 146 -526 8 -6 14 -19 14 -29 0 -26 -68 -126 -159 -234 l-82 -97 44
-51 44 -51 -45 -109 c-78 -192 -81 -284 -11 -350 34 -32 39 -43 39 -82 0 -74
-26 -183 -84 -357 -31 -91 -56 -170 -56 -175 0 -6 46 -42 103 -81 l103 -70 27
-173 c18 -120 35 -190 53 -229 24 -54 26 -66 30 -287 l6 -231 -31 -89 c-45
-131 -54 -232 -48 -499 3 -126 9 -243 13 -258 8 -34 67 -70 143 -87 56 -13
113 -11 321 13 l105 12 8 63 c5 34 12 62 15 61 4 0 44 -42 89 -93 l82 -93 133
-6 c73 -4 230 -16 348 -27 442 -41 685 -37 737 12 71 67 87 188 37 285 l-30
58 -94 12 c-177 23 -228 34 -287 62 -84 40 -222 135 -440 303 l-191 148 -7 52
c-13 90 -7 378 9 488 14 100 64 348 86 429 9 33 19 43 73 71 96 51 117 68 117
97 0 14 -18 80 -41 146 -47 142 -69 244 -69 329 0 57 4 66 75 185 58 95 75
133 75 161 0 50 -28 144 -84 278 -25 61 -55 151 -66 200 -35 157 -35 226 -1
459 101 700 144 1257 145 1850 0 481 -19 742 -78 1046 -13 68 -19 125 -15 137
11 29 50 47 166 76 121 31 174 53 267 111 90 56 157 85 212 94 l44 6 -49 76
-49 77 78 6 c43 4 95 4 115 0 27 -5 40 -3 46 7 24 37 32 104 30 244 l-1 151
92 74 c198 161 178 150 280 150 86 0 92 -2 124 -29 61 -54 187 -54 344 -1 50
16 102 30 115 30 36 0 152 -83 350 -251 197 -167 362 -293 470 -359 82 -51
233 -123 290 -140 l40 -12 0 -716 c0 -715 4 -840 41 -1252 36 -414 135 -1080
219 -1482 42 -199 139 -959 169 -1328 37 -449 49 -966 31 -1380 l-7 -165 -136
-135 c-203 -201 -363 -301 -576 -359 -43 -12 -102 -33 -131 -46 -47 -23 -64
-25 -188 -25 -153 0 -157 -2 -157 -76 0 -61 29 -94 132 -149 l93 -49 125 -3
c69 -2 215 -10 325 -18 226 -18 311 -11 376 27 l40 24 207 -22 c114 -12 232
-30 262 -39 75 -22 161 -14 234 22 69 33 76 52 76 205 0 134 -20 290 -67 517
-30 145 -38 210 -45 368 l-9 192 90 268 c209 621 268 1051 205 1493 -17 119
-62 312 -99 420 -14 40 -24 75 -22 77 4 4 202 -296 326 -496 497 -795 827
-1573 957 -2256 l17 -90 178 -181 179 -181 0 -49 c0 -27 -12 -122 -26 -212
-25 -154 -25 -164 -9 -182 50 -56 344 -101 456 -70 25 7 41 20 56 47 32 58 61
158 78 266 l16 98 -30 92 c-17 51 -50 169 -74 263 l-44 171 20 74 c24 92 30
371 9 431 -20 57 -87 80 -262 93 -47 3 -104 8 -126 11 -49 7 -37 -55 -99 494
-75 658 -112 897 -175 1136 -70 265 -144 375 -538 803 -79 85 -140 156 -138
158 2 3 25 5 50 5 25 0 46 1 46 3 0 1 -11 33 -25 69 -14 37 -54 185 -89 329
l-64 262 -11 335 c-6 184 -16 619 -21 965 -6 362 -15 651 -21 680 -18 81 -94
227 -176 337 -46 61 -181 208 -334 363 -205 208 -262 272 -287 321 -76 150
-81 267 -18 393 20 39 111 182 201 317 91 135 179 277 197 314 20 42 38 67 46
65 7 -3 123 -89 259 -191 l246 -187 -7 -108 c-12 -210 23 -507 95 -794 17 -66
63 -219 103 -340 l73 -220 -7 -135 c-8 -152 -5 -144 -121 -340 -117 -200 -151
-311 -151 -500 0 -68 6 -113 21 -160 18 -58 76 -168 102 -195 14 -14 52 29 69
81 l16 46 74 -86 c41 -47 78 -86 81 -86 11 0 143 110 172 143 23 27 27 40 27
92 0 33 -11 101 -26 153 -30 111 -33 98 69 322 102 226 105 237 108 392 3 125
1 137 -22 183 -32 66 -38 220 -14 345 9 47 21 182 27 300 5 118 12 217 13 218
2 2 23 -9 47 -25 199 -136 418 -222 614 -242 l97 -10 111 41 c287 105 505 249
611 403 l38 54 -34 43 c-19 24 -56 72 -81 109 -57 80 -111 130 -180 166 -51
26 -62 27 -238 32 l-184 6 -56 100 c-112 202 -235 362 -414 540 -184 183 -435
374 -618 470 l-54 28 -43 146 c-82 275 -194 711 -360 1393 -66 272 -130 511
-168 632 -28 90 -75 148 -178 221 -122 87 -219 121 -424 151 -63 9 -131 22
-151 29 -20 7 -63 18 -95 25 -33 7 -68 18 -80 25 -60 39 -175 18 -340 -62
-113 -54 -137 -80 -155 -167 -8 -40 -17 -56 -34 -64 -38 -17 -72 -71 -96 -152
l-22 -75 -90 -70 c-123 -95 -186 -152 -203 -184 -12 -24 -11 -30 11 -66 30
-50 30 -76 0 -123 -42 -65 -42 -77 3 -109 22 -15 41 -31 41 -35 0 -3 -15 -19
-34 -35 -18 -15 -39 -38 -45 -51 -11 -21 -9 -24 18 -33 30 -11 31 -13 31 -69
0 -32 -7 -74 -16 -95 -16 -39 -12 -79 12 -127 22 -42 73 -51 284 -50 102 1
193 -1 203 -4 14 -4 17 -18 17 -83 0 -104 20 -173 85 -298 30 -57 55 -110 55
-117 0 -7 -80 -75 -177 -152 -320 -253 -446 -358 -571 -479 -138 -132 -277
-292 -298 -342 -19 -43 -18 -208 1 -298 22 -102 49 -180 126 -360 65 -154 124
-314 117 -320 -2 -2 -39 14 -83 35 -44 22 -152 60 -240 85 -88 26 -189 61
-224 78 l-64 32 -1 195 c-2 244 -12 277 -113 369 -109 100 -206 121 -403 86
-47 -8 -115 -15 -152 -15 l-67 0 28 43 c43 64 61 114 61 173 0 73 -13 100 -59
124 -49 25 -95 26 -140 2 -53 -27 -69 -58 -93 -184 l-22 -117 -46 -12 c-61
-17 -125 -78 -144 -137 -9 -26 -24 -90 -35 -142 -28 -139 -30 -141 -113 -190
-40 -24 -90 -56 -110 -72 l-37 -29 -70 21 c-51 16 -90 21 -141 18 l-71 -3 6
25 c4 14 47 122 97 240 127 300 149 367 155 475 5 79 2 99 -21 169 -84 248
-396 727 -719 1104 l-89 103 87 95 87 94 148 0 c143 0 149 1 165 23 15 22 75
169 75 185 0 5 -16 27 -36 50 l-36 42 36 40 c20 22 36 46 36 53 0 7 -11 28
-24 47 l-24 35 41 37 42 38 -34 30 c-19 16 -33 31 -30 34 2 2 38 16 79 30 141
51 142 64 29 256 -61 104 -99 195 -99 239 0 30 11 36 124 77 54 20 136 89 120
103 -5 4 -40 16 -79 26 -38 10 -72 19 -74 21 -2 2 35 45 83 96 47 50 86 97 86
102 -1 16 -49 68 -91 99 l-37 26 20 88 c10 49 21 98 24 110 5 17 -1 27 -28 43
-43 26 -76 25 -172 -6 l-79 -25 -99 26 c-54 14 -107 25 -116 25 -10 0 -34 -16
-53 -36z"/>
</g>
</svg>
