<?xml version="1.0" standalone="no"?>
<!DOCTYPE svg PUBLIC "-//W3C//DTD SVG 20010904//EN"
 "http://www.w3.org/TR/2001/REC-SVG-20010904/DTD/svg10.dtd">
<svg version="1.0" xmlns="http://www.w3.org/2000/svg"
 width="640.000000pt" height="1280.000000pt" viewBox="0 0 640.000000 1280.000000"
 preserveAspectRatio="xMidYMid meet">
<metadata>
Created by potrace 1.15, written by Peter Selinger 2001-2017
</metadata>
<g transform="translate(0.000000,1280.000000) scale(0.100000,-0.100000)"
fill="#607d8b" stroke="none">
<path d="M3060 12794 c-102 -10 -381 -46 -459 -60 -180 -33 -332 -83 -491
-160 -225 -109 -245 -124 -271 -204 -31 -95 -140 -302 -211 -400 -90 -125
-109 -171 -119 -299 -5 -60 -13 -119 -18 -133 -13 -34 -57 -69 -151 -119 -151
-81 -234 -177 -233 -270 1 -58 29 -112 99 -191 86 -96 90 -108 76 -236 -22
-203 20 -353 143 -517 67 -89 72 -106 46 -156 -12 -22 -21 -43 -21 -47 0 -5
24 -49 53 -99 50 -84 53 -91 36 -102 -10 -6 -26 -11 -35 -11 -57 0 -477 -264
-794 -500 -360 -268 -553 -452 -585 -557 -10 -33 -15 -96 -15 -199 0 -148 8
-202 36 -235 8 -8 14 -31 14 -50 1 -92 87 -250 235 -429 144 -176 625 -641
815 -789 39 -31 65 -63 92 -113 73 -133 149 -220 205 -234 13 -4 23 -7 23 -9
0 -1 -21 -49 -46 -106 -84 -190 -107 -300 -179 -839 -20 -146 -71 -499 -115
-785 -165 -1084 -218 -1552 -300 -2695 -42 -582 -59 -784 -86 -1014 -22 -184
-15 -407 15 -521 57 -216 175 -365 288 -365 35 0 56 5 180 42 34 10 45 10 55
0 8 -8 16 -76 23 -190 6 -98 15 -184 19 -191 11 -17 100 -9 220 19 140 32 266
50 421 60 83 5 177 16 210 25 33 8 146 58 251 111 l191 97 79 -1 c43 0 131 -8
194 -18 71 -11 171 -18 260 -18 170 0 271 22 367 81 118 72 109 72 242 9 148
-71 195 -80 344 -72 110 5 165 19 181 44 3 5 10 42 16 83 19 128 8 120 167
117 125 -3 142 -1 178 19 100 53 210 175 241 265 20 62 68 103 136 117 29 6
150 29 268 50 483 88 610 132 610 212 0 43 -19 74 -115 190 -84 101 -103 135
-92 163 3 7 79 55 169 106 195 111 297 180 339 228 30 34 31 38 26 111 -2 42
-12 99 -21 126 -36 106 -161 341 -329 620 -202 335 -304 516 -479 845 -567
1066 -1145 2313 -1494 3225 -43 110 -51 142 -41 151 6 6 68 58 137 115 238
197 496 476 626 675 78 118 159 280 271 534 97 223 98 226 99 307 0 71 3 86
22 106 25 26 37 75 28 111 -3 14 -26 48 -51 76 -25 28 -45 54 -45 58 -1 4 -5
27 -10 52 -20 106 44 220 123 220 33 0 39 -5 63 -47 15 -27 40 -68 55 -93 24
-37 29 -41 29 -22 0 13 5 32 10 43 10 18 12 17 52 -11 50 -37 81 -38 115 -4
21 21 23 28 12 35 -8 5 -24 9 -36 9 -35 0 -78 63 -123 180 -51 135 -86 190
-161 261 -47 44 -59 62 -59 85 0 32 35 74 61 74 29 0 118 51 125 72 10 32 -11
42 -81 40 -87 -3 -89 2 -80 172 9 159 7 162 -79 144 -110 -24 -179 26 -191
140 -12 108 -62 182 -212 314 -89 77 -100 91 -121 148 -12 35 -20 66 -17 69 4
3 36 -5 72 -18 58 -21 76 -23 155 -17 l89 7 32 -34 c18 -18 52 -71 77 -118 49
-91 132 -184 174 -195 70 -17 73 28 10 121 -25 37 -55 90 -67 118 -37 95 -71
119 -222 162 -108 30 -171 89 -163 153 3 27 13 33 83 48 28 6 29 7 10 18 -10
6 -32 24 -49 39 l-29 28 7 150 c8 181 4 194 -90 275 -93 80 -155 145 -148 155
7 12 50 1 102 -26 49 -26 71 -24 103 11 18 20 21 29 13 42 -29 45 -194 64
-319 37 -44 -10 -101 -20 -126 -22 -43 -4 -48 -3 -70 29 -28 40 -40 49 -57 43
-21 -8 -66 21 -97 61 l-28 37 30 -6 c17 -3 42 -9 57 -13 30 -7 32 3 16 71 -12
51 0 65 57 65 58 0 100 -19 148 -69 51 -53 75 -53 178 2 147 78 200 147 112
147 -40 0 -66 -11 -108 -46 -40 -34 -57 -30 -104 20 -47 50 -89 66 -171 66
-29 0 -65 6 -80 14 -33 18 -89 76 -172 181 -88 111 -252 277 -330 335 -106 78
-122 83 -310 85 -91 2 -185 1 -210 -1z m1348 -1230 c12 -8 22 -24 22 -36 0
-15 4 -18 18 -13 9 4 34 9 55 12 36 5 37 5 37 -26 0 -24 -6 -34 -25 -43 -35
-16 -31 -25 15 -33 51 -9 56 -28 33 -115 -21 -74 -44 -94 -107 -86 -58 7 -62
15 -48 98 15 91 6 129 -48 195 -22 26 -40 51 -40 55 0 14 65 8 88 -8z m19
-1643 c83 -60 177 -209 208 -331 27 -105 7 -230 -39 -238 -18 -4 -99 47 -123
78 -21 25 -33 80 -43 188 -9 101 -22 142 -75 232 -17 30 -19 54 -5 81 14 26
30 24 77 -10z m-101 -227 c38 -65 29 -159 -15 -147 -11 3 -38 22 -60 42 -39
36 -41 41 -41 94 0 37 5 61 16 71 14 15 18 15 46 -1 16 -10 41 -36 54 -59z
m-2481 -610 c49 -19 175 -376 251 -709 21 -93 27 -145 26 -230 -1 -185 -33
-255 -237 -515 -162 -207 -224 -312 -225 -378 0 -20 -4 -22 -22 -17 -168 51
-237 78 -259 101 -13 14 -76 65 -139 114 -184 141 -227 204 -455 660 -136 271
-146 295 -134 317 18 34 461 336 660 451 261 150 469 230 534 206z m1827 -693
c189 -48 335 -64 530 -59 l170 5 -7 -34 c-12 -68 -63 -230 -100 -323 -106
-266 -198 -389 -391 -524 l-92 -64 -86 175 c-47 95 -115 253 -152 349 l-65
176 26 136 c14 76 28 149 31 165 3 15 10 27 15 27 4 0 59 -13 121 -29z"/>
</g>
</svg>
